<svg width="25" height="24" viewBox="0 0 25 24" fill="none" xmlns="http://www.w3.org/2000/svg">
<path d="M21.9033 5.23C20.2933 5.07 18.6833 4.95 17.0633 4.86V4.85L16.8433 3.55C16.6933 2.63 16.4733 1.25 14.1333 1.25H11.5133C9.18335 1.25 8.96335 2.57 8.80335 3.54L8.59335 4.82C7.66335 4.88 6.73335 4.94 5.80335 5.03L3.76335 5.23C3.34335 5.27 3.04335 5.64 3.08335 6.05C3.12335 6.46 3.48335 6.76 3.90335 6.72L5.94335 6.52C11.1833 6 16.4633 6.2 21.7633 6.73C21.7934 6.73 21.8133 6.73 21.8433 6.73C22.2233 6.73 22.5533 6.44 22.5933 6.05C22.6234 5.64 22.3233 5.27 21.9033 5.23Z" fill="#EF4444"/>
<path d="M20.0633 8.14C19.8233 7.89 19.4933 7.75 19.1533 7.75H6.51334C6.17334 7.75 5.83334 7.89 5.60334 8.14C5.37334 8.39 5.24334 8.73 5.26334 9.08L5.88334 19.34C5.99334 20.86 6.13334 22.76 9.62334 22.76H16.0433C19.5333 22.76 19.6733 20.87 19.7833 19.34L20.4033 9.09C20.4233 8.73 20.2933 8.39 20.0633 8.14ZM14.4933 17.75H11.1633C10.7533 17.75 10.4133 17.41 10.4133 17C10.4133 16.59 10.7533 16.25 11.1633 16.25H14.4933C14.9033 16.25 15.2433 16.59 15.2433 17C15.2433 17.41 14.9033 17.75 14.4933 17.75ZM15.3333 13.75H10.3333C9.92334 13.75 9.58334 13.41 9.58334 13C9.58334 12.59 9.92334 12.25 10.3333 12.25H15.3333C15.7433 12.25 16.0833 12.59 16.0833 13C16.0833 13.41 15.7433 13.75 15.3333 13.75Z" fill="#EF4444"/>
</svg>
