<svg width="65" height="65" viewBox="0 0 65 65" fill="none" xmlns="http://www.w3.org/2000/svg">
<circle cx="32.5" cy="32.5" r="31.5" stroke="#D1D5DB" stroke-width="2"/>
<path d="M25.2929 38.0208C24.9024 38.4114 24.9024 39.0445 25.2929 39.435C25.6834 39.8256 26.3166 39.8256 26.7071 39.435L25.2929 38.0208ZM39.7279 26C39.7279 25.4477 39.2802 25 38.7279 25L29.7279 25C29.1756 25 28.7279 25.4477 28.7279 26C28.7279 26.5523 29.1756 27 29.7279 27L37.7279 27L37.7279 35C37.7279 35.5523 38.1756 36 38.7279 36C39.2802 36 39.7279 35.5523 39.7279 35L39.7279 26ZM26.7071 39.435L39.435 26.7071L38.0208 25.2929L25.2929 38.0208L26.7071 39.435Z" fill="#D1D5DB"/>
</svg>
