<svg width="36" height="36" viewBox="0 0 36 36" fill="none" xmlns="http://www.w3.org/2000/svg">
<circle cx="17.758" cy="8.6855" r="1.23387" fill="#4F46E5"/>
<circle cx="21.0486" cy="9.50807" r="1.23387" fill="#4F46E5"/>
<circle cx="24.3391" cy="11.5645" r="1.23387" fill="#4F46E5"/>
<circle cx="26.3952" cy="14.4435" r="1.23387" fill="#4F46E5"/>
<circle cx="27.2175" cy="18.1452" r="1.23387" fill="#4F46E5"/>
<circle cx="26.3952" cy="21.8468" r="1.23387" fill="#4F46E5"/>
<circle cx="24.3391" cy="24.7258" r="1.23387" fill="#4F46E5"/>
<circle cx="21.0486" cy="26.7822" r="1.23387" fill="#4F46E5"/>
<circle cx="17.758" cy="27.6048" r="1.23387" fill="#4F46E5"/>
<circle cx="14.0564" cy="26.7822" r="1.23387" fill="#4F46E5"/>
<circle cx="10.7663" cy="24.7258" r="1.23387" fill="#4F46E5"/>
<circle cx="8.70995" cy="21.8468" r="1.23387" fill="#4F46E5"/>
<circle cx="8.29857" cy="18.1452" r="1.23387" fill="#4F46E5"/>
<circle cx="8.70995" cy="14.4435" r="1.23387" fill="#4F46E5"/>
<circle cx="10.7663" cy="11.5645" r="1.23387" fill="#4F46E5"/>
<circle cx="14.0564" cy="9.50807" r="1.23387" fill="#4F46E5"/>
<circle cx="17.758" cy="8.6855" r="1.23387" fill="#4F46E5"/>
<circle cx="21.0486" cy="9.50807" r="1.23387" fill="#4F46E5"/>
<circle cx="24.3391" cy="11.5645" r="1.23387" fill="#4F46E5"/>
<circle cx="26.3952" cy="14.4435" r="1.23387" fill="#4F46E5"/>
<circle cx="27.2175" cy="18.1452" r="1.23387" fill="#4F46E5"/>
<circle cx="26.3952" cy="21.8468" r="1.23387" fill="#4F46E5"/>
<circle cx="24.3391" cy="24.7258" r="1.23387" fill="#4F46E5"/>
<circle cx="21.0486" cy="26.7822" r="1.23387" fill="#4F46E5"/>
<circle cx="17.758" cy="27.6048" r="1.23387" fill="#4F46E5"/>
<circle cx="14.0564" cy="26.7822" r="1.23387" fill="#4F46E5"/>
<circle cx="10.7663" cy="24.7258" r="1.23387" fill="#4F46E5"/>
<circle cx="8.70995" cy="21.8468" r="1.23387" fill="#4F46E5"/>
<circle cx="8.29857" cy="18.1452" r="1.23387" fill="#4F46E5"/>
<circle cx="8.70995" cy="14.4435" r="1.23387" fill="#4F46E5"/>
<circle cx="10.7663" cy="11.5645" r="1.23387" fill="#4F46E5"/>
<circle cx="14.0564" cy="9.50807" r="1.23387" fill="#4F46E5"/>
<circle cx="15.7017" cy="5.80644" r="0.822581" fill="#4F46E5"/>
<circle cx="20.2259" cy="6.21772" r="0.822581" fill="#4F46E5"/>
<circle cx="24.7501" cy="7.86293" r="0.822581" fill="#4F46E5"/>
<circle cx="28.0406" cy="11.1532" r="0.822581" fill="#4F46E5"/>
<circle cx="29.6856" cy="15.6774" r="0.822581" fill="#4F46E5"/>
<circle cx="30.0968" cy="20.2016" r="0.822581" fill="#4F46E5"/>
<circle cx="28.0406" cy="24.7258" r="0.822581" fill="#4F46E5"/>
<circle cx="24.3389" cy="28.0161" r="0.822581" fill="#4F46E5"/>
<circle cx="20.2259" cy="30.0726" r="0.822581" fill="#4F46E5"/>
<circle cx="15.2906" cy="30.0726" r="0.822581" fill="#4F46E5"/>
<circle cx="11.1778" cy="28.0161" r="0.822581" fill="#4F46E5"/>
<circle cx="7.88728" cy="24.7258" r="0.822581" fill="#4F46E5"/>
<circle cx="5.83088" cy="20.2016" r="0.822581" fill="#4F46E5"/>
<circle cx="5.83088" cy="15.6774" r="0.822581" fill="#4F46E5"/>
<circle cx="7.88728" cy="11.1532" r="0.822581" fill="#4F46E5"/>
<circle cx="11.1778" cy="7.86293" r="0.822581" fill="#4F46E5"/>
<circle cx="12.6169" cy="3.95565" r="0.616935" fill="#4F46E5"/>
<circle cx="18.3752" cy="3.13308" r="0.616935" fill="#4F46E5"/>
<circle cx="24.1333" cy="4.36694" r="0.616935" fill="#4F46E5"/>
<circle cx="28.6572" cy="7.65728" r="0.616935" fill="#4F46E5"/>
<circle cx="31.9475" cy="12.5927" r="0.616935" fill="#4F46E5"/>
<circle cx="32.7703" cy="18.3508" r="0.616935" fill="#4F46E5"/>
<circle cx="31.5364" cy="24.1089" r="0.616935" fill="#4F46E5"/>
<circle cx="27.835" cy="28.6331" r="0.616935" fill="#4F46E5"/>
<circle cx="22.8994" cy="31.5121" r="0.616935" fill="#4F46E5"/>
<circle cx="17.5525" cy="32.3347" r="0.616935" fill="#4F46E5"/>
<circle cx="11.7944" cy="31.5121" r="0.616935" fill="#4F46E5"/>
<circle cx="7.27026" cy="27.8104" r="0.616935" fill="#4F46E5"/>
<circle cx="4.39111" cy="22.875" r="0.616935" fill="#4F46E5"/>
<circle cx="3.15722" cy="17.1169" r="0.616935" fill="#4F46E5"/>
<circle cx="4.80248" cy="11.7702" r="0.616935" fill="#4F46E5"/>
<circle cx="7.68163" cy="6.83468" r="0.616935" fill="#4F46E5"/>
<circle cx="32.3591" cy="27.8104" r="0.616935" fill="#4F46E5"/>
<circle cx="8.50414" cy="3.54436" r="0.616935" fill="#4F46E5"/>
<circle cx="14.6733" cy="1.07659" r="0.616935" fill="#4F46E5"/>
<circle cx="21.6655" cy="1.07659" r="0.616935" fill="#4F46E5"/>
<circle cx="27.4233" cy="3.95565" r="0.616935" fill="#4F46E5"/>
<circle cx="32.3591" cy="8.47982" r="0.616935" fill="#4F46E5"/>
<circle cx="34.8267" cy="15.0605" r="0.616935" fill="#4F46E5"/>
<circle cx="34.4155" cy="21.6411" r="0.616935" fill="#4F46E5"/>
<circle cx="27.0122" cy="31.9234" r="0.616935" fill="#4F46E5"/>
<circle cx="20.843" cy="34.8024" r="0.616935" fill="#4F46E5"/>
<circle cx="14.6733" cy="34.8024" r="0.616935" fill="#4F46E5"/>
<circle cx="8.09301" cy="31.9234" r="0.616935" fill="#4F46E5"/>
<circle cx="3.5686" cy="26.9879" r="0.616935" fill="#4F46E5"/>
<circle cx="1.10058" cy="20.8186" r="0.616935" fill="#4F46E5"/>
<circle cx="1.10058" cy="14.2379" r="0.616935" fill="#4F46E5"/>
<circle cx="3.97997" cy="8.06857" r="0.616935" fill="#4F46E5"/>
</svg>
